<svg xmlns="http://www.w3.org/2000/svg">
  <symbol id="starters" viewBox="0 0 64 64"><path d="M12 38h40c-2 10-9 15-20 15S14 48 12 38Z" fill="none" stroke="currentColor" stroke-width="3" stroke-linejoin="round"/><path d="M17 38c3-10 10-15 15-15s12 5 15 15M22 23c-2-5 3-7 1-12M33 21c-2-5 3-7 1-12M44 24c-2-5 3-7 1-12" fill="none" stroke="currentColor" stroke-width="3" stroke-linecap="round"/></symbol>
  <symbol id="fried-rice" viewBox="0 0 64 64"><path d="M11 34h42c-2 12-9 19-21 19S13 46 11 34Z" fill="none" stroke="currentColor" stroke-width="3" stroke-linejoin="round"/><path d="M15 34c3-9 10-14 17-14s14 5 17 14M19 16l28 13M25 11l25 13" fill="none" stroke="currentColor" stroke-width="3" stroke-linecap="round"/><circle cx="26" cy="29" r="1.5" fill="currentColor"/><circle cx="35" cy="26" r="1.5" fill="currentColor"/><circle cx="41" cy="31" r="1.5" fill="currentColor"/></symbol>
  <symbol id="noodles" viewBox="0 0 64 64"><path d="M11 35h42c-2 12-9 18-21 18S13 47 11 35Z" fill="none" stroke="currentColor" stroke-width="3" stroke-linejoin="round"/><path d="M18 35c0-10 7-16 14-16s14 6 14 16M17 12h31M22 12c1 7 3 9 2 16M31 12c0 8 3 10 1 19M41 12c-1 8 2 11 0 18" fill="none" stroke="currentColor" stroke-width="3" stroke-linecap="round"/></symbol>
  <symbol id="pasta" viewBox="0 0 64 64"><circle cx="31" cy="34" r="19" fill="none" stroke="currentColor" stroke-width="3"/><path d="M20 35c4-10 18-10 22 0-4 9-18 9-22 0Zm7-1c4-5 8-5 12 0M50 12v40M46 12v13M54 12v13" fill="none" stroke="currentColor" stroke-width="3" stroke-linecap="round" stroke-linejoin="round"/></symbol>
  <symbol id="burgers" viewBox="0 0 64 64"><path d="M14 27c1-10 8-15 18-15s17 5 18 15H14Zm0 5h36M16 38h32l-3 12H19l-3-12Z" fill="none" stroke="currentColor" stroke-width="3" stroke-linejoin="round"/><path d="m18 34 8 5 7-5 7 5 7-5" fill="none" stroke="currentColor" stroke-width="3" stroke-linejoin="round"/><circle cx="25" cy="20" r="1.5" fill="currentColor"/><circle cx="37" cy="18" r="1.5" fill="currentColor"/></symbol>
  <symbol id="sandwiches" viewBox="0 0 64 64"><path d="M11 48 31 13l22 35H11Z" fill="none" stroke="currentColor" stroke-width="3" stroke-linejoin="round"/><path d="m17 39 29-1M21 31h20" fill="none" stroke="currentColor" stroke-width="3" stroke-linecap="round"/></symbol>
  <symbol id="fries" viewBox="0 0 64 64"><path d="M18 25h28l-3 28H21l-3-28Z" fill="none" stroke="currentColor" stroke-width="3" stroke-linejoin="round"/><path d="M22 25 19 10M28 25l1-16M35 25l-1-15M41 25l4-14" fill="none" stroke="currentColor" stroke-width="3" stroke-linecap="round"/><path d="m24 35 8 7 8-7" fill="none" stroke="currentColor" stroke-width="3" stroke-linejoin="round"/></symbol>
  <symbol id="maggi" viewBox="0 0 64 64"><path d="M13 30h38v15c0 5-4 9-9 9H22c-5 0-9-4-9-9V30Z" fill="none" stroke="currentColor" stroke-width="3" stroke-linejoin="round"/><path d="M19 30c0-8 5-12 13-12s13 4 13 12M21 14c-2-4 3-6 1-10M32 13c-2-4 3-6 1-10M43 14c-2-4 3-6 1-10" fill="none" stroke="currentColor" stroke-width="3" stroke-linecap="round"/></symbol>
  <symbol id="momos" viewBox="0 0 64 64"><path d="M10 46c2-13 9-20 18-20 1 12-5 20-18 20Zm26 0c1-13 7-20 17-20 2 12-5 20-17 20ZM20 25c2-9 7-14 15-14 1 10-5 15-15 14Z" fill="none" stroke="currentColor" stroke-width="3" stroke-linejoin="round"/><path d="m16 39 8-8M42 39l7-8M26 20l6-5" fill="none" stroke="currentColor" stroke-width="2.5" stroke-linecap="round"/></symbol>
  <symbol id="water" viewBox="0 0 64 64"><path d="M26 9h12v9l4 6v27c0 3-2 5-5 5H27c-3 0-5-2-5-5V24l4-6V9Z" fill="none" stroke="currentColor" stroke-width="3" stroke-linejoin="round"/><path d="M26 17h12M23 30h18M23 45h18M32 34c-3 4-4 6-4 8a4 4 0 0 0 8 0c0-2-1-4-4-8Z" fill="none" stroke="currentColor" stroke-width="3" stroke-linecap="round"/></symbol>
  <symbol id="cigarette" viewBox="0 0 64 64"><path d="M10 36h36v10H10V36Zm36 0h8v10h-8M18 28c-4-4 2-6-1-10M30 28c-4-4 2-6-1-10M43 28c-4-4 2-6-1-10" fill="none" stroke="currentColor" stroke-width="3" stroke-linecap="round" stroke-linejoin="round"/></symbol>
  <symbol id="biscuits" viewBox="0 0 64 64"><circle cx="32" cy="32" r="21" fill="none" stroke="currentColor" stroke-width="3" stroke-dasharray="3 4"/><circle cx="25" cy="25" r="2" fill="currentColor"/><circle cx="39" cy="24" r="2" fill="currentColor"/><circle cx="34" cy="38" r="2" fill="currentColor"/><circle cx="22" cy="39" r="2" fill="currentColor"/><circle cx="43" cy="36" r="2" fill="currentColor"/></symbol>
  <symbol id="tea" viewBox="0 0 64 64"><path d="M13 22h34v20c0 7-5 12-12 12H25c-7 0-12-5-12-12V22Z" fill="none" stroke="currentColor" stroke-width="3" stroke-linejoin="round"/><path d="M47 27h4c5 0 7 3 7 7s-3 7-9 7M21 17c-3-5 3-7 1-12M33 17c-3-5 3-7 1-12" fill="none" stroke="currentColor" stroke-width="3" stroke-linecap="round"/></symbol>
  <symbol id="cold-coffee" viewBox="0 0 64 64"><path d="M18 18h29l-4 38H22l-4-38Z" fill="none" stroke="currentColor" stroke-width="3" stroke-linejoin="round"/><path d="m37 18 8-12M22 30h23M24 42h20M27 13c2-5 8-5 10 0" fill="none" stroke="currentColor" stroke-width="3" stroke-linecap="round"/></symbol>
  <symbol id="torando" viewBox="0 0 64 64"><path d="M13 13h38M18 21h28M22 29h20M26 37h12M29 45h6M31 53h2" fill="none" stroke="currentColor" stroke-width="4" stroke-linecap="round"/></symbol>
  <symbol id="mojito" viewBox="0 0 64 64"><path d="M15 18h34l-5 37H20l-5-37Z" fill="none" stroke="currentColor" stroke-width="3" stroke-linejoin="round"/><path d="m35 18 8-13M22 30h23M28 39c3-6 8-8 13-7-1 6-6 9-13 7Z" fill="none" stroke="currentColor" stroke-width="3" stroke-linecap="round" stroke-linejoin="round"/><circle cx="20" cy="15" r="7" fill="none" stroke="currentColor" stroke-width="3"/></symbol>
  <symbol id="custom" viewBox="0 0 64 64"><path d="M32 9v46M9 32h46" fill="none" stroke="currentColor" stroke-width="4" stroke-linecap="round"/><circle cx="32" cy="32" r="24" fill="none" stroke="currentColor" stroke-width="3"/></symbol>
</svg>
